<?xml version="1.0" standalone="no"?>
<!DOCTYPE svg PUBLIC "-//W3C//DTD SVG 20010904//EN"
 "http://www.w3.org/TR/2001/REC-SVG-20010904/DTD/svg10.dtd">
<svg version="1.0" xmlns="http://www.w3.org/2000/svg"
 width="337.000000pt" height="337.000000pt" viewBox="0 0 337.000000 337.000000"
 preserveAspectRatio="xMidYMid meet">
<metadata>
Created by potrace 1.14, written by Peter Selinger 2001-2017
</metadata>
<g transform="translate(0.000000,337.000000) scale(0.100000,-0.100000)"
fill="#000000" stroke="none">
<path d="M1640 2453 c-11 -32 -23 -65 -26 -73 -4 -11 -14 -5 -40 24 -44 50
-50 36 -34 -84 7 -50 10 -93 8 -95 -1 -2 -18 3 -35 10 -29 12 -33 19 -33 50 0
35 0 35 -25 19 -25 -17 -45 -12 -45 11 0 8 -4 16 -9 20 -11 6 -276 -34 -425
-65 -54 -11 -112 -20 -130 -20 -56 0 -58 -8 -26 -100 16 -47 30 -94 30 -104 0
-18 -1 -18 -19 -2 -17 15 -23 15 -82 1 -35 -8 -76 -15 -91 -15 -22 0 -28 -5
-28 -21 0 -16 -4 -19 -17 -14 -42 17 -53 17 -53 0 0 -15 -11 -16 -92 -14 -59
2 -101 -1 -115 -9 -17 -9 -22 -9 -25 0 -7 21 -179 -72 -206 -112 -56 -84 -66
-205 -22 -294 34 -70 118 -169 138 -161 8 3 18 1 22 -5 10 -16 185 -51 256
-51 34 0 81 5 105 11 58 16 115 73 131 133 10 38 14 44 29 37 11 -7 36 -3 75
10 31 11 66 20 76 20 14 0 17 5 13 23 -35 148 -17 179 24 40 11 -39 21 -73 21
-76 0 -3 -24 -13 -54 -21 -70 -21 -88 -38 -76 -72 12 -32 13 -57 1 -50 -5 3
-17 -6 -27 -21 -15 -24 -18 -25 -23 -9 -6 16 -8 16 -33 -4 -64 -50 -204 -74
-287 -50 -40 11 -49 7 -31 -16 36 -43 237 -111 293 -98 15 3 27 1 27 -4 0 -13
-55 -61 -103 -91 -35 -21 -41 -22 -88 -11 -27 7 -52 10 -55 7 -7 -7 45 -55 80
-74 26 -14 34 -13 95 5 82 26 102 29 119 18 9 -5 20 -1 33 13 24 25 45 26 155
4 61 -12 93 -14 112 -7 28 10 29 16 18 82 l-7 37 36 -42 c62 -72 242 -178 422
-248 l73 -28 102 42 c166 68 285 138 363 214 38 37 70 67 72 67 1 0 -1 -22 -4
-49 -8 -68 10 -77 109 -56 84 18 192 9 301 -25 63 -20 147 -27 147 -12 0 5
-16 16 -36 25 -63 30 -186 130 -173 140 7 5 161 29 199 30 26 2 37 -3 45 -20
15 -30 25 -19 25 26 0 51 -24 81 -63 80 -18 0 -92 19 -165 43 -141 46 -138 44
-116 101 8 23 -34 55 -82 63 -29 4 -44 11 -44 21 0 11 9 13 44 8 31 -5 52 -2
74 9 41 21 44 21 64 -14 9 -17 25 -30 35 -30 45 -1 47 -16 9 -68 l-36 -50 52
-7 c29 -4 72 -13 95 -20 36 -11 51 -10 95 2 29 9 59 21 67 27 16 13 45 10 82
-10 19 -9 28 -24 33 -52 l6 -39 82 -22 c70 -19 95 -22 171 -16 84 7 88 8 83
29 -3 11 -8 41 -12 66 -4 25 -11 50 -16 57 -5 6 -8 17 -7 25 2 7 -5 47 -15 88
-13 57 -16 94 -11 153 5 51 4 77 -3 77 -6 0 -14 -5 -17 -10 -4 -6 -30 -22 -58
-36 -29 -15 -61 -35 -73 -45 -19 -18 -55 -18 -54 0 1 3 39 35 85 69 83 62 85
65 85 106 l0 41 -104 23 -105 23 -53 -35 c-29 -20 -56 -36 -61 -36 -4 0 0 16
8 36 21 50 20 51 -27 59 -24 3 -77 17 -118 30 -41 13 -117 31 -168 41 l-93 16
7 32 c3 17 17 59 29 93 26 69 24 73 -43 73 -20 0 -64 7 -97 14 -33 8 -63 12
-67 10 -4 -3 -15 0 -25 6 -10 6 -92 21 -183 35 -176 26 -166 28 -196 -22 -10
-15 -15 -16 -33 -5 -29 17 -31 16 -31 -13 0 -19 -9 -29 -35 -42 -19 -9 -37
-14 -40 -11 -3 3 -2 25 4 49 5 24 12 73 16 108 l6 64 -37 -32 c-21 -17 -41
-27 -45 -23 -3 4 -16 33 -29 65 -12 31 -24 57 -25 57 -2 0 -13 -26 -25 -57z
m56 -50 l18 -53 28 27 c15 15 31 24 35 20 3 -4 -2 -54 -12 -111 -15 -92 -20
-105 -42 -115 -32 -15 -114 -13 -135 3 -16 12 -38 135 -38 206 l1 25 27 -33
c15 -18 30 -32 33 -32 3 0 11 19 18 42 32 105 36 107 67 21z m454 -109 c63 -9
124 -21 135 -27 10 -5 35 -11 55 -12 19 -1 69 -8 111 -15 l76 -13 -25 -76
c-13 -42 -25 -81 -27 -88 -2 -6 -13 -9 -24 -6 -12 3 -29 -1 -38 -8 -10 -8 -14
-9 -10 -2 11 17 0 21 -114 39 -282 43 -299 42 -322 -24 l-15 -47 -1 63 c-1 34
-10 90 -21 123 -18 53 -19 64 -7 78 8 9 17 23 20 32 5 14 13 15 49 9 24 -5 95
-16 158 -26z m-747 3 c14 -22 14 -28 -11 -77 -24 -48 -26 -63 -25 -164 1 -61
-1 -100 -3 -86 -11 67 -28 132 -38 137 -11 7 -105 5 -154 -4 -32 -5 -34 -7
-30 -45 l4 -39 -18 23 c-10 13 -20 31 -24 41 -3 11 -12 16 -22 13 -9 -2 -39
-7 -67 -11 -100 -13 -97 -11 -90 -69 4 -28 8 -58 11 -67 3 -11 -3 -19 -16 -22
-17 -4 -21 -1 -18 16 1 12 -5 33 -15 47 -9 13 -17 31 -17 38 0 8 -14 55 -30
104 -17 50 -29 92 -28 93 7 4 344 67 428 79 137 20 145 19 163 -7z m87 -132
c11 -27 53 -98 92 -157 l70 -107 60 77 c76 99 124 184 141 251 l14 53 22 -27
c31 -41 34 -62 29 -221 -5 -135 -7 -146 -29 -171 l-24 -25 23 6 c22 7 22 6 22
-73 l0 -81 -76 0 -76 0 6 33 c4 17 10 57 13 87 l6 55 -52 -67 c-42 -55 -57
-68 -79 -68 -23 0 -35 11 -72 68 l-45 67 -3 -52 c-2 -29 1 -68 7 -88 l9 -35
-63 0 c-38 0 -67 5 -73 13 -6 6 -12 49 -13 94 -3 73 -1 85 19 106 26 28 28 42
5 33 -27 -11 -33 13 -33 140 0 118 1 121 32 170 l32 49 7 -40 c4 -22 17 -62
29 -90z m35 51 c24 -10 35 -22 35 -36 0 -24 34 -40 89 -40 68 0 102 11 112 37
8 23 56 49 67 38 16 -16 -141 -262 -173 -272 -10 -3 -120 159 -143 212 -24 53
-32 75 -26 75 2 0 20 -7 39 -14z m-210 -138 c-3 -13 1 -88 10 -168 8 -80 15
-161 15 -181 0 -36 0 -36 -52 -43 -104 -12 -94 -27 -104 157 -8 126 -7 165 3
177 10 13 9 18 -7 28 -11 7 -20 19 -20 27 0 13 7 15 133 23 24 2 27 -1 22 -20z
m851 8 c44 -8 106 -18 139 -22 33 -3 63 -8 67 -10 4 -3 0 -20 -8 -39 -8 -19
-14 -47 -14 -63 0 -42 -8 -44 -51 -12 -45 32 -127 49 -140 28 -20 -30 -10 -38
51 -38 33 0 60 -2 60 -5 0 -2 -14 -25 -32 -50 -26 -37 -37 -45 -64 -45 -20 0
-34 -6 -38 -16 -9 -24 -2 -27 59 -34 41 -5 62 -2 87 12 51 27 57 24 51 -24 -3
-24 -9 -48 -14 -54 -4 -5 -6 -19 -3 -31 3 -11 2 -23 -3 -26 -4 -2 -82 5 -173
17 -130 17 -165 24 -165 36 2 78 19 201 32 224 12 21 13 31 5 34 -13 4 -17
113 -5 125 10 11 75 8 159 -7z m-1081 -42 c5 -31 2 -42 -24 -75 -39 -47 -39
-56 -2 -30 16 12 31 21 34 21 2 0 7 -43 11 -95 4 -52 11 -117 15 -145 9 -57
11 -55 -81 -65 l-56 -7 -7 75 c-7 71 -9 75 -34 80 -14 3 -30 1 -35 -4 -6 -5
-22 -9 -36 -9 -15 0 -29 -2 -32 -5 -3 -3 1 -38 8 -78 8 -40 14 -75 14 -79 0
-7 -116 -48 -137 -48 -8 0 -13 13 -13 34 0 39 -56 372 -65 386 -3 5 4 12 17
14 147 31 151 31 143 5 -4 -11 -4 -42 0 -70 6 -46 9 -49 37 -49 16 0 49 5 74
11 l44 11 -6 57 c-4 31 -11 61 -16 66 -6 7 14 14 59 21 37 7 71 12 74 13 4 0
10 -15 14 -35z m1501 -24 c60 -11 142 -31 183 -45 41 -14 85 -25 98 -25 13 0
23 -2 23 -3 0 -2 -18 -40 -39 -84 -40 -81 -87 -133 -122 -133 -25 0 -24 -7 10
-69 l28 -53 109 140 c60 77 114 147 120 157 10 18 14 18 102 0 l92 -17 0 -32
c0 -28 -10 -40 -90 -101 -49 -38 -90 -73 -90 -77 0 -4 8 -11 17 -17 10 -5 16
-11 13 -14 -3 -2 -32 -22 -64 -45 -33 -23 -56 -42 -51 -42 7 0 215 90 225 97
2 2 -2 8 -10 13 -17 10 -18 9 42 43 l46 27 -4 -73 c-4 -53 0 -90 14 -139 13
-47 16 -70 9 -77 -8 -8 -6 -15 5 -23 13 -11 42 -118 33 -126 -2 -2 -43 7 -91
20 l-89 23 -8 47 c-9 45 -11 48 -55 62 -26 9 -68 20 -94 26 -47 10 -48 10 -81
-26 -31 -34 -37 -36 -70 -30 -20 4 -37 12 -37 17 0 6 -11 8 -27 5 -16 -3 -40
-3 -55 1 l-27 8 39 52 c22 28 37 54 33 56 -5 3 -27 10 -51 17 -40 10 -45 16
-72 76 -21 47 -34 64 -49 64 -15 0 -20 -9 -26 -50 -4 -27 -10 -52 -14 -54 -4
-3 -35 2 -70 11 l-63 16 6 45 c3 25 11 51 17 58 6 8 7 14 2 14 -6 0 -2 51 10
123 10 67 19 130 20 140 2 22 18 22 153 -3z m-639 -77 c-2 -16 -4 -5 -4 22 0
28 2 40 4 28 2 -13 2 -35 0 -50z m-1393 25 c22 10 23 8 35 -55 7 -36 18 -83
25 -104 l14 -39 -89 0 c-74 0 -87 2 -83 15 14 35 -91 42 -143 9 -32 -20 -48
-80 -34 -129 25 -92 71 -132 137 -119 44 8 89 43 75 57 -7 7 14 25 70 59 44
26 83 48 86 48 9 0 -5 -151 -18 -190 -19 -57 -95 -125 -132 -119 -6 1 -25 -3
-42 -10 -28 -12 -70 -10 -147 5 -16 3 -28 12 -28 21 0 11 -7 14 -24 9 -20 -5
-32 3 -67 42 -23 26 -55 76 -72 110 -27 58 -29 70 -24 133 9 109 32 150 113
197 86 50 120 62 110 37 -5 -14 1 -13 35 7 37 22 45 23 110 15 47 -7 77 -6 93
1z m823 -80 c-3 -8 -6 -5 -6 6 -1 11 2 17 5 13 3 -3 4 -12 1 -19z m560 -120
c-2 -18 -4 -6 -4 27 0 33 2 48 4 33 2 -15 2 -42 0 -60z m393 73 c0 -5 -7 -12
-16 -15 -14 -5 -15 -4 -4 9 14 17 20 19 20 6z m-70 -35 c0 -11 -19 -15 -25 -6
-3 5 1 10 9 10 9 0 16 -2 16 -4z m-1738 -92 c17 -9 39 -14 49 -11 40 11 16
-12 -46 -44 -56 -29 -65 -37 -60 -56 8 -32 -13 -39 -25 -8 -15 40 -12 96 7
117 20 22 35 23 75 2z m1210 -48 c-9 -31 -8 -35 12 -40 11 -3 52 -6 89 -6 52
0 69 4 73 15 6 13 8 14 18 1 6 -8 35 -16 69 -18 33 -3 62 -9 65 -15 4 -6 41
-17 82 -26 l75 -16 -170 5 c-93 3 -181 8 -195 11 -14 4 -29 5 -35 4 -5 -1
-104 -4 -220 -7 -115 -2 -295 -9 -398 -15 -103 -6 -190 -9 -192 -7 -3 3 -8 20
-11 39 l-7 34 25 -22 c22 -21 29 -22 82 -13 85 14 96 19 96 43 l0 22 18 -22
c16 -21 22 -22 100 -16 80 6 82 7 83 32 l1 26 10 -27 c9 -27 11 -28 93 -28
l83 0 -5 48 c-4 43 -3 46 11 28 8 -10 17 -22 18 -26 2 -4 22 -10 46 -14 41 -6
43 -5 64 30 25 42 34 32 20 -20z m1028 39 c-7 -9 -15 -13 -17 -11 -7 7 7 26
19 26 6 0 6 -6 -2 -15z m-444 -125 c9 0 14 -7 12 -17 -3 -14 -12 -17 -48 -14
-25 1 -48 5 -52 7 -13 8 4 34 22 34 10 0 24 7 31 17 13 15 14 14 17 -5 2 -12
10 -22 18 -22z m-624 -37 c-66 -23 -44 -25 41 -4 72 19 90 19 317 9 225 -11
241 -13 237 -30 -6 -22 1 -22 28 -2 23 17 86 11 123 -13 18 -11 22 -21 18 -39
-3 -13 -9 -35 -12 -49 -6 -23 -3 -25 27 -25 19 -1 47 -7 63 -13 l29 -13 -29
-23 c-28 -23 -28 -23 -4 -16 14 4 36 13 49 20 20 10 32 8 80 -11 31 -13 72
-24 93 -24 31 0 37 -4 47 -30 10 -31 4 -39 -17 -18 -9 9 -30 7 -89 -6 -43 -9
-102 -17 -131 -19 l-53 -2 35 -41 c19 -22 64 -62 100 -89 37 -27 65 -50 63
-51 -2 -2 -30 5 -63 15 -32 9 -87 23 -121 31 -35 7 -60 16 -58 21 6 8 -36 4
-118 -12 -26 -5 -67 -9 -90 -9 -36 1 -39 2 -22 12 10 6 33 15 50 20 27 7 26 7
-9 3 l-39 -4 6 43 6 43 -137 4 c-205 5 -244 4 -277 -4 -20 -5 -13 1 20 17 51
26 42 27 -45 5 -19 -4 -159 -11 -310 -15 -270 -6 -530 -19 -439 -22 46 -2 47
-3 51 -37 5 -40 8 -39 -56 -20 -27 8 -68 15 -92 15 -24 0 -46 5 -49 10 -3 6
-1 10 6 10 7 0 10 3 6 6 -3 4 -14 4 -23 0 -30 -12 4 -36 51 -36 46 0 170 -35
180 -50 12 -20 -49 -22 -139 -5 -86 16 -96 16 -126 2 -27 -14 -31 -14 -26 -2
7 19 -2 19 -23 2 -9 -7 -53 -24 -98 -36 l-82 -23 -36 22 c-43 26 -41 35 3 19
29 -10 37 -8 80 20 26 16 70 53 97 82 l50 51 -56 -6 c-30 -4 -77 -2 -103 4
-54 12 -186 62 -186 70 0 3 35 3 77 0 79 -5 103 0 186 40 20 10 37 17 37 15 0
-2 -5 -16 -11 -32 -9 -26 -7 -25 33 15 24 23 53 42 65 42 20 0 21 1 7 47 -16
54 -9 68 45 83 59 16 69 14 64 -17 -4 -22 -2 -25 6 -13 6 8 11 23 11 33 0 15
7 18 38 16 20 -1 48 0 62 4 26 8 373 23 535 25 l90 0 -43 -15z m108 -353 c14
-1 68 1 120 3 52 3 131 2 175 -1 l80 -7 -58 -56 c-94 -91 -370 -234 -452 -234
-47 0 -228 80 -338 149 -85 53 -168 133 -146 140 26 10 462 14 619 6z"/>
<path d="M1658 2243 c7 -3 16 -2 19 1 4 3 -2 6 -13 5 -11 0 -14 -3 -6 -6z"/>
<path d="M2611 1940 c-24 -11 -54 -20 -67 -20 -12 0 -26 -5 -30 -11 -4 -6 -19
-9 -36 -5 -30 6 -30 6 -15 -18 9 -13 14 -33 12 -45 -3 -18 5 -23 53 -37 75
-22 99 -20 157 10 26 14 55 26 63 26 11 0 13 8 8 33 -4 17 -8 40 -9 49 -1 11
-16 20 -44 27 -51 13 -40 14 -92 -9z m79 -35 c17 -9 30 -17 30 -19 0 -3 3 -11
6 -20 4 -10 -9 -22 -45 -40 -28 -14 -60 -26 -71 -26 -35 0 -110 22 -110 32 0
8 59 38 75 38 3 0 5 -10 5 -22 1 -21 2 -21 11 -5 6 10 9 23 6 30 -4 11 38 47
56 47 4 0 21 -7 37 -15z"/>
<path d="M1438 1483 c-10 -2 -18 -12 -18 -20 0 -14 -2 -14 -18 0 -25 22 -193
24 -234 3 -16 -8 -28 -11 -28 -5 0 5 -20 9 -45 9 l-45 0 0 -39 c0 -21 3 -66 7
-101 l6 -62 40 5 c22 3 43 11 47 17 6 9 9 9 14 1 5 -7 45 -11 113 -10 88 1
108 4 123 19 16 16 20 17 31 4 14 -17 70 -19 86 -3 7 7 17 8 29 1 11 -5 77
-10 147 -11 123 -1 129 0 153 24 l24 24 25 -24 c29 -30 97 -34 133 -9 21 14
22 14 22 -7 0 -21 3 -21 69 -15 45 5 71 3 76 -3 3 -6 23 -11 44 -11 l38 0 7
53 c3 28 6 73 6 100 l0 47 -40 0 c-22 0 -40 -3 -40 -7 0 -5 -9 -19 -19 -33
l-19 -24 -22 37 c-18 31 -27 37 -55 37 -18 0 -35 -5 -37 -11 -2 -7 -16 -5 -40
6 -42 21 -99 14 -127 -14 -17 -17 -19 -17 -44 1 -30 22 -160 37 -170 21 -4 -7
-20 -7 -46 0 -31 9 -48 7 -80 -5 -27 -11 -40 -12 -38 -5 2 12 -45 19 -75 10z
m223 -30 c18 -21 -4 -38 -49 -38 -32 0 -37 -3 -40 -26 -2 -17 3 -29 13 -33 21
-8 35 0 35 20 0 9 11 14 30 14 26 0 30 -3 30 -29 0 -38 -21 -54 -75 -55 -82
-2 -124 75 -75 137 29 36 105 42 131 10z m-252 -20 l30 -38 1 38 c0 34 2 37
30 37 l30 0 0 -85 c0 -81 -1 -85 -22 -85 -12 0 -37 14 -55 32 l-33 32 0 -32
c0 -29 -3 -32 -30 -32 l-30 0 0 78 c0 43 3 82 7 85 16 16 43 4 72 -30z m414
26 c12 -7 25 -17 29 -23 15 -21 8 -84 -11 -107 -16 -20 -28 -24 -83 -24 l-63
0 -3 83 -3 82 56 0 c31 0 66 -5 78 -11z m196 1 c10 -5 24 -23 31 -39 25 -62
-39 -133 -106 -117 -63 16 -86 96 -42 143 23 25 83 32 117 13z m107 -12 c7 -5
17 -22 24 -38 7 -17 15 -30 19 -30 3 1 19 19 34 41 20 30 33 39 50 37 14 -2
22 -10 21 -20 0 -10 -1 -47 -2 -83 l-2 -65 -30 0 c-26 0 -30 4 -30 28 -1 24
-2 25 -14 10 -19 -26 -43 -22 -60 10 l-15 27 -1 -39 c0 -37 -1 -38 -27 -31
-16 4 -28 7 -28 8 0 1 1 39 3 85 3 80 4 83 25 76 12 -3 27 -11 33 -16z m-999
-15 l10 -28 17 28 c14 21 26 27 54 27 l35 0 -19 -22 c-47 -54 -47 -52 -8 -99
l37 -44 -34 -3 c-27 -3 -38 2 -54 22 -22 28 -35 25 -35 -6 0 -13 -8 -18 -30
-18 l-30 0 0 79 c0 78 4 88 37 90 6 1 15 -11 20 -26z m183 -52 c0 -75 -1 -79
-24 -83 -21 -4 -25 0 -30 31 -3 20 -6 57 -6 84 0 46 1 47 30 47 l30 0 0 -79z
m-70 -3 l0 -43 -19 24 c-15 20 -17 28 -8 43 19 29 27 21 27 -24z m370 0 c0 -5
-7 -8 -15 -8 -15 0 -20 21 -8 33 7 7 23 -11 23 -25z"/>
<path d="M1750 1385 c0 -28 4 -35 19 -35 26 0 44 25 36 50 -4 13 -15 20 -31
20 -21 0 -24 -5 -24 -35z m40 5 c0 -11 -4 -20 -10 -20 -5 0 -10 9 -10 20 0 11
5 20 10 20 6 0 10 -9 10 -20z"/>
<path d="M1947 1413 c-4 -3 -7 -17 -7 -30 0 -18 6 -23 24 -23 13 0 27 7 30 16
11 28 -27 57 -47 37z m33 -29 c0 -16 -16 -19 -25 -4 -8 13 4 32 16 25 5 -4 9
-13 9 -21z"/>
<path d="M2288 1203 c12 -2 30 -2 40 0 9 3 -1 5 -23 4 -22 0 -30 -2 -17 -4z"/>
<path d="M2403 1194 c29 -9 19 -23 -25 -34 -61 -16 -69 -21 -23 -14 49 7 77
22 72 37 -2 7 -12 13 -23 14 -16 2 -16 1 -1 -3z"/>
</g>
</svg>
